<svg width="16" height="15" viewBox="0 0 16 15" fill="none" xmlns="http://www.w3.org/2000/svg">
<path d="M1.79077 2.67097C1.38232 3.57541 1.38232 4.86674 1.38232 7.13286C1.38232 9.76691 1.38232 11.0839 2.02377 12.0072C2.23093 12.3054 2.48168 12.5676 2.76681 12.7843C3.64969 13.455 4.9091 13.455 7.42792 13.455H8.77138C11.2902 13.455 12.5496 13.455 13.4325 12.7843C13.7176 12.5676 13.9684 12.3054 14.1755 12.0072C14.817 11.0839 14.817 9.76691 14.817 7.13286C14.817 4.85072 14.817 3.5572 14.3998 2.65185M1.79077 2.67097C1.85709 2.52412 1.93417 2.38747 2.02377 2.2585C2.23093 1.96032 2.48168 1.6981 2.76681 1.48146C3.64969 0.810669 4.9091 0.810669 7.42792 0.810669H8.77138C11.2902 0.810669 12.5496 0.810669 13.4325 1.48146C13.7176 1.6981 13.9684 1.96032 14.1755 2.2585C14.2612 2.38186 14.3355 2.51224 14.3998 2.65185M1.79077 2.67097L2.05406 2.91807L3.34978 4.27307C5.58889 6.61463 6.70845 7.7854 8.09965 7.7854C9.49085 7.7854 10.6104 6.61463 12.8495 4.27308L14.1452 2.91807L14.3998 2.65185" stroke="#74727A" stroke-width="1.18541"/>
</svg>
