<svg width="18" height="15" viewBox="0 0 18 15" fill="none" xmlns="http://www.w3.org/2000/svg">
<path d="M9.02139 9.05477C8.69405 9.05477 8.42868 9.32014 8.42868 9.64748C8.42868 9.97482 8.69405 10.2402 9.02139 10.2402V9.05477ZM11.9849 7.27666C11.9849 6.94932 11.7196 6.68395 11.3922 6.68395C11.0649 6.68395 10.7995 6.94932 10.7995 7.27666H11.9849ZM2.08331 5.79521L1.60183 5.44956H1.60183L2.08331 5.79521ZM2.08314 8.75786L2.56463 8.41222L2.56463 8.41222L2.08314 8.75786ZM4.11219 11.1433L4.55707 10.7517L4.54205 10.7346L4.52576 10.7188L4.11219 11.1433ZM13.8429 3.32529L13.433 3.75341L13.4498 3.76953L13.4679 3.78428L13.8429 3.32529ZM1.38491 7.27664L0.792202 7.27663L1.38491 7.27664ZM15.9595 8.7581L16.4409 9.10376H16.4409L15.9595 8.7581ZM15.9594 5.79515L15.4779 6.1408V6.1408L15.9594 5.79515ZM15.656 4.42437C15.4489 4.17091 15.0755 4.13336 14.822 4.34051C14.5685 4.54765 14.531 4.92105 14.7381 5.17451L15.656 4.42437ZM5.81093 11.8066C5.54506 11.6157 5.17472 11.6764 4.98376 11.9423C4.7928 12.2081 4.85352 12.5785 5.11939 12.7694L5.81093 11.8066ZM16.6579 7.27665L16.0652 7.27665L16.6579 7.27665ZM0.748392 13.136C0.492781 13.3405 0.451338 13.7135 0.655827 13.9691C0.860316 14.2247 1.2333 14.2662 1.48891 14.0617L0.748392 13.136ZM17.2944 1.41729C17.55 1.2128 17.5914 0.839819 17.387 0.584207C17.1825 0.328596 16.8095 0.287153 16.5539 0.491642L17.2944 1.41729ZM13.9011 3.37287L14.2714 3.8357L13.9011 3.37287ZM4.14354 11.1789L4.5138 11.6418L4.14354 11.1789ZM9.02139 4.31313C7.38468 4.31313 6.05786 5.63995 6.05786 7.27666H7.24327C7.24327 6.29463 8.03936 5.49854 9.02139 5.49854V4.31313ZM6.05786 7.27666C6.05786 7.97273 6.29858 8.61422 6.70087 9.12008L7.62866 8.38225C7.38718 8.07859 7.24327 7.69525 7.24327 7.27666H6.05786ZM11.3348 5.42434C10.7927 4.74795 9.95761 4.31313 9.02139 4.31313V5.49854C9.58269 5.49854 10.083 5.75794 10.4098 6.16572L11.3348 5.42434ZM9.02139 10.2402C10.6581 10.2402 11.9849 8.91337 11.9849 7.27666H10.7995C10.7995 8.25868 10.0034 9.05477 9.02139 9.05477V10.2402ZM9.02139 0.361762C7.32945 0.361762 5.79964 1.19866 4.55771 2.21552C3.309 3.23793 2.28795 4.49383 1.60183 5.44956L2.56479 6.14086C3.22014 5.22799 4.17186 4.06351 5.30868 3.13271C6.45229 2.19635 7.72078 1.54717 9.02139 1.54717V0.361762ZM1.60166 9.10351C2.12471 9.83212 2.83947 10.731 3.69861 11.5679L4.52576 10.7188C3.73132 9.94488 3.06137 9.10418 2.56463 8.41222L1.60166 9.10351ZM14.2528 2.89717C12.8837 1.58636 11.0688 0.361762 9.02139 0.361762V1.54717C10.6042 1.54717 12.1337 2.50943 13.433 3.75341L14.2528 2.89717ZM1.60183 5.44956C1.16373 6.05982 0.792208 6.54279 0.792202 7.27663L1.97761 7.27664C1.97762 6.99331 2.0717 6.82772 2.56479 6.14086L1.60183 5.44956ZM2.56463 8.41222C2.07166 7.72552 1.97761 7.55998 1.97761 7.27664L0.792202 7.27663C0.792197 8.01047 1.16364 8.49336 1.60166 9.10351L2.56463 8.41222ZM9.02139 14.1916C10.7133 14.1916 12.2431 13.3547 13.4851 12.3378C14.7338 11.3154 15.7548 10.0595 16.4409 9.10376L15.478 8.41245C14.8226 9.32532 13.8709 10.4898 12.7341 11.4206C11.5905 12.357 10.322 13.0061 9.02139 13.0061V14.1916ZM16.4409 5.44949C16.2136 5.13282 15.9506 4.78487 15.656 4.42437L14.7381 5.17451C15.0151 5.51344 15.263 5.84147 15.4779 6.1408L16.4409 5.44949ZM5.11939 12.7694C6.24516 13.578 7.57328 14.1916 9.02139 14.1916V13.0061C7.91121 13.0061 6.82299 12.5336 5.81093 11.8066L5.11939 12.7694ZM16.4409 9.10376C16.8791 8.49348 17.2506 8.01051 17.2506 7.27665L16.0652 7.27665C16.0652 7.55999 15.9711 7.72558 15.478 8.41245L16.4409 9.10376ZM15.4779 6.1408C15.9711 6.82771 16.0652 6.99332 16.0652 7.27665L17.2506 7.27665C17.2506 6.54279 16.879 6.05979 16.4409 5.44949L15.4779 6.1408ZM14.2714 3.8357L17.2944 1.41729L16.5539 0.491642L13.5309 2.91005L14.2714 3.8357ZM13.4679 3.78428L13.5261 3.83186L14.2761 2.91389L14.2179 2.8663L13.4679 3.78428ZM1.48891 14.0617L4.5138 11.6418L3.77328 10.7161L0.748392 13.136L1.48891 14.0617ZM4.5138 11.6418L14.2714 3.8357L13.5309 2.91005L3.77328 10.7161L4.5138 11.6418ZM3.66731 11.535L3.69866 11.5706L4.58842 10.7873L4.55707 10.7517L3.66731 11.535Z" fill="#74727A"/>
</svg>
