<svg width="16" height="17" viewBox="0 0 16 17" fill="none" xmlns="http://www.w3.org/2000/svg">
<path d="M3.76715 15.6005L3.95031 15.0368L3.76715 15.6005ZM1.35706 13.1904L1.92076 13.0073L1.35706 13.1904ZM14.5033 13.1904L13.9396 13.0073L14.5033 13.1904ZM12.0932 15.6005L11.9101 15.0368L12.0932 15.6005ZM12.0932 5.45733L11.9101 6.02102L12.0932 5.45733ZM14.5033 7.86741L13.9396 8.05057L14.5033 7.86741ZM3.76715 5.45733L3.95031 6.02102L3.76715 5.45733ZM1.35706 7.86741L1.92076 8.05057L1.35706 7.86741ZM8.52288 9.0274C8.52288 8.70006 8.25752 8.4347 7.93018 8.4347C7.60284 8.4347 7.33747 8.70006 7.33747 9.0274H8.52288ZM7.33747 12.0304C7.33747 12.3578 7.60284 12.6231 7.93018 12.6231C8.25752 12.6231 8.52288 12.3578 8.52288 12.0304H7.33747ZM6.42866 5.86631H9.4317V4.6809H6.42866V5.86631ZM9.4317 15.1915H6.42866V16.3769H9.4317V15.1915ZM6.42866 15.1915C4.98515 15.1915 4.40397 15.1842 3.95031 15.0368L3.584 16.1642C4.26123 16.3843 5.07742 16.3769 6.42866 16.3769V15.1915ZM0.580634 10.5289C0.580634 11.8802 0.573322 12.6964 0.793367 13.3736L1.92076 13.0073C1.77336 12.5536 1.76605 11.9724 1.76605 10.5289H0.580634ZM3.95031 15.0368C2.98795 14.7241 2.23345 13.9696 1.92076 13.0073L0.793367 13.3736C1.22331 14.6968 2.26075 15.7343 3.584 16.1642L3.95031 15.0368ZM14.0943 10.5289C14.0943 11.9724 14.087 12.5536 13.9396 13.0073L15.067 13.3736C15.287 12.6964 15.2797 11.8802 15.2797 10.5289H14.0943ZM9.4317 16.3769C10.7829 16.3769 11.5991 16.3843 12.2764 16.1642L11.9101 15.0368C11.4564 15.1842 10.8752 15.1915 9.4317 15.1915V16.3769ZM13.9396 13.0073C13.6269 13.9696 12.8724 14.7241 11.9101 15.0368L12.2764 16.1642C13.5996 15.7343 14.637 14.6968 15.067 13.3736L13.9396 13.0073ZM15.2797 10.5289C15.2797 9.17768 15.287 8.36149 15.067 7.68426L13.9396 8.05057C14.087 8.50423 14.0943 9.08541 14.0943 10.5289H15.2797ZM11.9101 6.02102C12.8724 6.33371 13.6269 7.08821 13.9396 8.05057L15.067 7.68426C14.637 6.36102 13.5996 5.32358 12.2764 4.89363L11.9101 6.02102ZM1.76605 10.5289C1.76605 9.08541 1.77336 8.50423 1.92076 8.05057L0.793367 7.68426C0.573322 8.36149 0.580634 9.17768 0.580634 10.5289H1.76605ZM3.584 4.89363C2.26075 5.32358 1.22331 6.36102 0.793367 7.68426L1.92076 8.05057C2.23345 7.08821 2.98795 6.33371 3.95031 6.02102L3.584 4.89363ZM11.0913 4.52284V5.2736H12.2767V4.52284H11.0913ZM4.76909 5.2736V4.52284H3.58367V5.2736H4.76909ZM7.93018 1.36175C9.676 1.36175 11.0913 2.77702 11.0913 4.52284H12.2767C12.2767 2.12233 10.3307 0.176337 7.93018 0.176337V1.36175ZM7.93018 0.176337C5.52967 0.176337 3.58367 2.12233 3.58367 4.52284H4.76909C4.76909 2.77702 6.18436 1.36175 7.93018 1.36175V0.176337ZM7.33747 9.0274V12.0304H8.52288V9.0274H7.33747ZM6.42866 4.6809C5.37018 4.6809 4.64584 4.67883 4.07791 4.77451L4.27484 5.94345C4.72044 5.86838 5.32246 5.86631 6.42866 5.86631V4.6809ZM4.07791 4.77451C3.90574 4.80351 3.74279 4.84204 3.584 4.89363L3.95031 6.02102C4.04647 5.98978 4.15202 5.96414 4.27484 5.94345L4.07791 4.77451ZM3.58367 5.2736V5.35898H4.76909V5.2736H3.58367ZM9.4317 5.86631C10.5379 5.86631 11.1399 5.86838 11.5855 5.94345L11.7824 4.77451C11.2145 4.67883 10.4902 4.6809 9.4317 4.6809V5.86631ZM11.5855 5.94345C11.7083 5.96414 11.8139 5.98978 11.9101 6.02102L12.2764 4.89363C12.1176 4.84204 11.9546 4.80351 11.7824 4.77451L11.5855 5.94345ZM11.0913 5.2736V5.35898H12.2767V5.2736H11.0913Z" fill="#74727A"/>
</svg>
