<svg width="149" height="149" viewBox="0 0 149 149" fill="none" xmlns="http://www.w3.org/2000/svg">
<g clip-path="url(#clip0_106_4116)">
<path d="M138.625 74.4974C140.756 72.0163 142.249 69.0527 142.975 65.8639C143.701 62.675 143.638 59.3572 142.792 56.1982C141.945 53.0392 140.34 50.1344 138.117 47.7359C135.894 45.3374 133.119 43.5175 130.033 42.4342C130.638 39.22 130.449 35.9068 129.483 32.7821C128.517 29.6573 126.804 26.8154 124.491 24.5029C122.178 22.1904 119.336 20.4771 116.211 19.5118C113.086 18.5464 109.773 18.358 106.559 18.9631C105.477 15.8765 103.657 13.1009 101.258 10.877C98.8599 8.65321 95.9548 7.04846 92.7954 6.20211C89.6359 5.35576 86.3176 5.29339 83.1286 6.02042C79.9396 6.74745 76.9762 8.2419 74.4958 10.374C72.0146 8.24337 69.0511 6.75026 65.8622 6.02424C62.6734 5.29822 59.3555 5.3612 56.1965 6.20772C53.0375 7.05425 50.1327 8.65874 47.7342 10.882C45.3357 13.1053 43.5159 15.8802 42.4326 18.9661C39.2186 18.362 35.9057 18.5512 32.7814 19.5172C29.657 20.4832 26.8156 22.197 24.5034 24.5097C22.1913 26.8224 20.4783 29.6643 19.5131 32.7889C18.5478 35.9135 18.3595 39.2264 18.9644 42.4402C15.8786 43.5235 13.1036 45.3434 10.8803 47.7419C8.65706 50.1404 7.05256 53.0451 6.20603 56.2042C5.35951 59.3632 5.29652 62.681 6.02254 65.8698C6.74857 69.0587 8.2417 72.0222 10.3724 74.5034C8.24105 76.9845 6.74746 79.9483 6.02123 83.1375C5.295 86.3266 5.35804 89.6449 6.20494 92.8042C7.05183 95.9635 8.65696 98.8683 10.881 101.267C13.1051 103.665 15.8808 105.484 18.9674 106.567C18.362 109.781 18.5501 113.094 19.5155 116.218C20.4808 119.343 22.1942 122.185 24.5069 124.498C26.8197 126.81 29.6618 128.523 32.7867 129.488C35.9115 130.453 39.2247 130.641 42.4386 130.035C43.5219 133.121 45.3417 135.896 47.7402 138.119C50.1387 140.342 53.0435 141.947 56.2025 142.793C59.3615 143.64 62.6793 143.703 65.8682 142.977C69.057 142.251 72.0206 140.757 74.5018 138.627C76.9829 140.758 79.9466 142.252 83.1358 142.978C86.325 143.704 89.6432 143.641 92.8025 142.794C95.9618 141.947 98.8667 140.342 101.265 138.118C103.663 135.894 105.483 133.118 106.565 130.032C109.779 130.637 113.092 130.449 116.217 129.483C119.342 128.518 122.184 126.805 124.496 124.492C126.809 122.179 128.522 119.337 129.488 116.213C130.453 113.088 130.641 109.775 130.036 106.561C133.122 105.478 135.897 103.658 138.121 101.259C140.344 98.8606 141.949 95.9556 142.795 92.7964C143.641 89.6372 143.704 86.3192 142.977 83.1304C142.25 79.9415 140.757 76.9781 138.625 74.4974Z" fill="#05028F"/>
<path d="M62.1158 100.829L42.9467 81.672C42.2192 80.9433 41.8105 79.9557 41.8105 78.9261C41.8105 77.8964 42.2192 76.9088 42.9467 76.1802L45.2756 73.8483C46.0042 73.1208 46.9918 72.7122 48.0215 72.7122C49.0511 72.7122 50.0387 73.1208 50.7674 73.8483L64.7018 87.7737L97.5184 52.9003C98.2246 52.1511 99.1991 51.7126 100.228 51.6813C101.257 51.6499 102.257 52.0281 103.007 52.7329L105.399 54.99C106.149 55.6963 106.588 56.6715 106.619 57.7013C106.651 58.7311 106.272 59.7313 105.566 60.4819L67.7004 100.743C67.3439 101.122 66.9146 101.427 66.438 101.638C65.9615 101.848 65.4475 101.961 64.9265 101.969C64.4055 101.977 63.8882 101.881 63.4054 101.685C62.9225 101.489 62.484 101.198 62.1158 100.829Z" fill="white"/>
</g>
<g clip-path="url(#clip1_106_4116)">
<path d="M143.377 74.1716L143.097 74.4974L143.377 74.8232C145.626 77.4406 147.202 80.5673 147.969 83.9319C148.735 87.2966 148.669 90.7975 147.776 94.1308C146.883 97.4642 145.191 100.529 142.845 103.06C140.499 105.591 137.57 107.511 134.314 108.654L133.909 108.796L133.988 109.218C134.627 112.609 134.428 116.105 133.41 119.402C132.391 122.699 130.584 125.698 128.143 128.138C125.703 130.578 122.705 132.386 119.408 133.404C116.111 134.423 112.615 134.622 109.224 133.983L108.801 133.904L108.659 134.309C107.517 137.566 105.598 140.494 103.067 142.841C100.537 145.188 97.4715 146.881 94.1381 147.775C90.8047 148.668 87.3035 148.735 83.9386 147.969C80.5736 147.202 77.4464 145.627 74.8286 143.378L74.5028 143.098L74.177 143.378C71.5591 145.626 68.4321 147.201 65.0675 147.967C61.7028 148.733 58.2021 148.667 54.8689 147.774C51.5358 146.881 48.4709 145.188 45.9402 142.842C43.4094 140.496 41.4893 137.568 40.3463 134.312L40.204 133.907L39.7819 133.986C36.3909 134.626 32.8951 134.427 29.598 133.409C26.3009 132.391 23.3021 130.584 20.8619 128.144C18.4217 125.704 16.6138 122.705 15.5953 119.408C14.5767 116.111 14.3782 112.616 15.017 109.225L15.0965 108.802L14.6911 108.66C11.4344 107.518 8.50561 105.599 6.15897 103.068C3.81232 100.538 2.11872 97.4726 1.22514 94.1391C0.331563 90.8057 0.26504 87.3045 1.0313 83.9396C1.79757 80.5746 3.37349 77.4474 5.62228 74.8296L5.9021 74.5038L5.62233 74.178C3.37422 71.5601 1.79877 68.4332 1.03273 65.0685C0.266679 61.7039 0.333143 58.2031 1.22633 54.87C2.11952 51.5368 3.81248 48.472 6.15833 45.9412C8.50418 43.4105 11.4321 41.4903 14.688 40.3473L15.0932 40.205L15.0138 39.783C14.3755 36.392 14.5743 32.8965 15.5927 29.5997C16.6112 26.3028 18.4186 23.3043 20.8582 20.864C23.2978 18.4238 26.2959 16.6157 29.5924 15.5964C32.889 14.5771 36.3845 14.3775 39.7757 15.0148L40.1976 15.0941L40.3398 14.6891C41.4828 11.4331 43.403 8.50522 45.9337 6.15937C48.4645 3.81353 51.5293 2.12058 54.8625 1.22739C58.1956 0.3342 61.6964 0.267745 65.061 1.03379C68.4257 1.79984 71.5526 3.37526 74.1706 5.62337L74.4965 5.90323L74.8222 5.62321C77.4394 3.37356 80.5661 1.79674 83.9309 1.02964C87.2957 0.262535 90.7969 0.328341 94.1305 1.22134C97.4641 2.11434 100.529 3.80754 103.06 6.15394C105.591 8.50034 107.511 11.429 108.653 14.6857L108.795 15.091L109.217 15.0116C112.608 14.3732 116.104 14.5719 119.401 15.5905C122.699 16.6091 125.697 18.4168 128.138 20.8568C130.578 23.2968 132.386 26.2954 133.405 29.5924C134.424 32.8894 134.623 36.3852 133.985 39.7766L133.906 40.1986L134.311 40.3408C137.567 41.4838 140.495 43.404 142.841 45.9348C145.187 48.4655 146.88 51.5304 147.773 54.8635C148.666 58.1967 148.732 61.6974 147.966 65.062C147.2 68.4267 145.625 71.5536 143.377 74.1716Z" stroke="#05028F"/>
</g>
<defs>
<clipPath id="clip0_106_4116">
<rect width="137.963" height="137.963" fill="white" transform="translate(5.51758 5.51849)"/>
</clipPath>
<clipPath id="clip1_106_4116">
<rect width="149" height="149" fill="white"/>
</clipPath>
</defs>
</svg>
